<svg width="24" height="25" viewBox="0 0 24 25" fill="none" xmlns="http://www.w3.org/2000/svg">
<path d="M22 12.5C22 18.023 17.523 22.5 12 22.5C6.477 22.5 2 18.023 2 12.5C2 6.977 6.477 2.5 12 2.5C17.523 2.5 22 6.977 22 12.5ZM20 12.5C20 10.3783 19.1571 8.34344 17.6569 6.84315C16.1566 5.34285 14.1217 4.5 12 4.5C9.87827 4.5 7.84344 5.34285 6.34315 6.84315C4.84285 8.34344 4 10.3783 4 12.5C4 14.6217 4.84285 16.6566 6.34315 18.1569C7.84344 19.6571 9.87827 20.5 12 20.5C14.1217 20.5 16.1566 19.6571 17.6569 18.1569C19.1571 16.6566 20 14.6217 20 12.5V12.5ZM14 16V10.5C14 10.3674 13.9473 10.2402 13.8536 10.1464C13.7598 10.0527 13.6326 10 13.5 10C13.3674 10 13.2402 10.0527 13.1464 10.1464C13.0527 10.2402 13 10.3674 13 10.5V14.5C13 15.163 12.7366 15.7989 12.2678 16.2678C11.7989 16.7366 11.163 17 10.5 17C9.83696 17 9.20107 16.7366 8.73223 16.2678C8.26339 15.7989 8 15.163 8 14.5V13.5H6V11.5H8V9H10V14.5C10 14.6326 10.0527 14.7598 10.1464 14.8536C10.2402 14.9473 10.3674 15 10.5 15C10.6326 15 10.7598 14.9473 10.8536 14.8536C10.9473 14.7598 11 14.6326 11 14.5V10.5C11 9.83696 11.2634 9.20107 11.7322 8.73223C12.2011 8.26339 12.837 8 13.5 8C14.163 8 14.7989 8.26339 15.2678 8.73223C15.7366 9.20107 16 9.83696 16 10.5V11.5L18 11.5V13.5L16 13.5V16H14Z" fill="#BE9D35"/>
</svg>
