<svg width="27" height="28" viewBox="0 0 27 28" fill="none" xmlns="http://www.w3.org/2000/svg">
<path fill-rule="evenodd" clip-rule="evenodd" d="M18 12.5H9C8.175 12.5 7.5 13.175 7.5 14C7.5 14.825 8.175 15.5 9 15.5H18C18.825 15.5 19.5 14.825 19.5 14C19.5 13.175 18.825 12.5 18 12.5M24 23C24 23.8265 23.328 24.5 22.5 24.5H4.5C3.672 24.5 3 23.8265 3 23V5C3 4.1735 3.672 3.5 4.5 3.5H22.5C23.328 3.5 24 4.1735 24 5V23ZM22.5 0.5H4.5C2.019 0.5 0 2.519 0 5V23C0 25.481 2.019 27.5 4.5 27.5H22.5C24.981 27.5 27 25.481 27 23V5C27 2.519 24.981 0.5 22.5 0.5V0.5Z" fill="#9E2A3F"/>
</svg>
