<svg width="25" height="24" viewBox="0 0 25 24" fill="none" xmlns="http://www.w3.org/2000/svg">
<path d="M2.5 12C2.5 10.1435 3.2375 8.36305 4.55025 7.0503C5.86301 5.73754 7.64349 5.00004 9.5 5.00004V3.92604C9.50001 3.67416 9.59507 3.43156 9.76619 3.24673C9.9373 3.06189 10.1719 2.94844 10.423 2.92904L21.423 2.08304C21.6874 2.06263 21.9491 2.14809 22.1505 2.32062C22.3519 2.49315 22.4766 2.73863 22.497 3.00304L22.5 3.08004V20.92C22.5 21.1853 22.3946 21.4396 22.2071 21.6272C22.0196 21.8147 21.7652 21.92 21.5 21.92L21.423 21.917L10.423 21.071C10.1719 21.0516 9.9373 20.9382 9.76619 20.7534C9.59507 20.5685 9.50001 20.3259 9.5 20.074V19C7.64349 19 5.86301 18.2625 4.55025 16.9498C3.2375 15.637 2.5 13.8566 2.5 12ZM11.5 4.85304L11.5 19.148L20.5 19.841V4.16004L11.5 4.85304ZM13.5 10H15.5V14H13.5V10ZM4.5 12C4.50007 13.2885 4.99754 14.5272 5.88866 15.4578C6.77978 16.3884 7.99575 16.9391 9.283 16.995L9.5 17V7.00004C8.21154 7.00012 6.97284 7.49759 6.04222 8.3887C5.11161 9.27982 4.56092 10.4958 4.505 11.783L4.5 12Z" fill="#9D273D"/>
</svg>
