<svg width="21" height="17" viewBox="0 0 21 17" fill="none" xmlns="http://www.w3.org/2000/svg">
<path d="M21 16.5C18.8783 16.5 16.8434 15.6571 15.3431 14.1569C13.8429 12.6566 13 10.6217 13 8.5C13 6.37827 13.8429 4.34344 15.3431 2.84315C16.8434 1.34285 18.8783 0.5 21 0.5V2.5C19.4087 2.5 17.8826 3.13214 16.7574 4.25736C15.6321 5.38258 15 6.9087 15 8.5C15 10.0913 15.6321 11.6174 16.7574 12.7426C17.8826 13.8679 19.4087 14.5 21 14.5V16.5ZM12 8.5C12 11.815 9.315 14.5 6 14.5C2.685 14.5 0 11.815 0 8.5C0 5.185 2.685 2.5 6 2.5C9.315 2.5 12 5.185 12 8.5ZM10 8.5C10 6.29 8.21 4.5 6 4.5C3.79 4.5 2 6.29 2 8.5C2 10.71 3.79 12.5 6 12.5C8.21 12.5 10 10.71 10 8.5Z" fill="white"/>
</svg>
